<svg xmlns="http://www.w3.org/2000/svg" viewBox="0 0 800 600" width="800" height="600"><rect width="800" height="600" fill="#CFE3F2"/>
    <circle cx="680" cy="110" r="46" fill="#FFF3D6"/>
    <rect x="180" y="280" width="440" height="190" fill="#E9ECF2"/>
    <path d="M620 280a80 80 0 0 1 0 180" fill="#E9ECF2"/>
    <rect x="170" y="380" width="460" height="18" rx="9" fill="#fff"/>
      <rect x="200" y="404" width="90" height="52" rx="4" fill="#9FB6CF"/><rect x="330" y="404" width="140" height="52" rx="4" fill="#9FB6CF"/><rect x="510" y="404" width="90" height="52" rx="4" fill="#9FB6CF"/>
      <path d="M200 430h90M330 430h140" stroke="#C9820A" stroke-width="3"/><rect x="170" y="290" width="460" height="18" rx="9" fill="#fff"/>
      <rect x="200" y="314" width="90" height="52" rx="4" fill="#9FB6CF"/><rect x="330" y="314" width="140" height="52" rx="4" fill="#9FB6CF"/><rect x="510" y="314" width="90" height="52" rx="4" fill="#9FB6CF"/>
      <path d="M200 340h90M330 340h140" stroke="#C9820A" stroke-width="3"/>
    <rect x="370" y="390" width="60" height="80" rx="4" fill="#C9820A"/>
    <rect y="470" width="800" height="130" fill="#D9D3C7"/><rect y="500" width="800" height="100" fill="#A9A9A9"/>
    
  <g transform="translate(110 470) scale(1)">
    <path d="M0 0 C-40 -60 -30 -120 -6 -150 C -10 -100 0 -60 0 0Z" fill="#4F8A68"/>
    <path d="M0 0 C30 -50 60 -90 50 -140 C30 -100 10 -60 0 0Z" fill="#3E7658"/>
    <path d="M0 0 C-10 -70 10 -130 26 -170 C 30 -110 14 -60 0 0Z" fill="#5B9A74"/>
    <path d="M-28 0 h56 l-8 56 h-40z" fill="#C9B8A6"/>
  </g></svg>
